<?xml version="1.0" encoding="UTF-8" standalone="no"?>
<!-- Created with Inkscape (http://www.inkscape.org/) -->

<svg
   width="48"
   height="48"
   viewBox="0 0 12.7 12.7"
   version="1.1"
   id="svg5"
   inkscape:version="1.1.1 (3bf5ae0d25, 2021-09-20)"
   sodipodi:docname="logo.svg"
   xmlns:inkscape="http://www.inkscape.org/namespaces/inkscape"
   xmlns:sodipodi="http://sodipodi.sourceforge.net/DTD/sodipodi-0.dtd"
   xmlns="http://www.w3.org/2000/svg"
   xmlns:svg="http://www.w3.org/2000/svg">
  <sodipodi:namedview
     id="namedview7"
     pagecolor="#ffffff"
     bordercolor="#666666"
     borderopacity="1.0"
     inkscape:pageshadow="2"
     inkscape:pageopacity="0.0"
     inkscape:pagecheckerboard="0"
     inkscape:document-units="mm"
     showgrid="false"
     units="px"
     inkscape:zoom="24.886869"
     inkscape:cx="20.974917"
     inkscape:cy="14.90746"
     inkscape:window-width="3840"
     inkscape:window-height="2066"
     inkscape:window-x="-11"
     inkscape:window-y="-11"
     inkscape:window-maximized="1"
     inkscape:current-layer="layer1" />
  <defs
     id="defs2" />
  <g
     inkscape:label="Layer 1"
     inkscape:groupmode="layer"
     id="layer1">
    <path
       d="M 7.7488297,7.7384035 7.0847255,7.0822368 a 0.26458333,0.26458333 0 0 0 -0.3757083,0 0.6753901,0.6753901 0 0 1 -0.9551458,-0.9551458 0.26458333,0.26458333 0 0 0 0,-0.3730625 l -0.66675,-0.6614583 a 0.26458333,0.26458333 0 0 0 -0.3730625,0 l -4.32329166,4.318 a 0.26458333,0.26458333 0 0 0 0,0.3757083 L 1.0548714,10.450383 a 0.26458333,0.26458333 0 0 0 0.3757083,0 0.67913455,0.67913455 0 0 1 0.9630833,0.957792 0.26458333,0.26458333 0 0 0 0,0.373062 l 0.6641042,0.66675 a 0.26458333,0.26458333 0 0 0 0.3757083,0 L 7.7488297,8.1220493 a 0.26458333,0.26458333 0 0 0 0,-0.3836458 z M 6.251288,8.8602368 6.044913,8.6538618 5.6692047,9.0269243 5.8782255,9.2359452 3.2323922,11.881779 2.9228297,11.572217 A 1.2038542,1.2038542 0 0 0 1.2612464,9.9132785 L 0.95168394,9.5904868 3.5975172,6.9446535 3.8038922,7.1536743 4.1796005,6.777966 3.9705797,6.571591 4.901913,5.6481952 5.2141214,5.9630493 A 1.2012083,1.2012083 0 0 0 6.8730589,7.6219868 L 7.187913,7.936841 Z M 5.568663,8.2093618 a 0.13229167,0.13229167 0 0 1 0,0.1852084 l -0.1878541,0.1905 a 0.13229167,0.13229167 0 0 1 -0.1852084,0 l -0.1905,-0.1905 a 0.13229167,0.13229167 0 0 1 0,-0.1852084 l 0.1905,-0.1878541 a 0.13229167,0.13229167 0 0 1 0.1852084,0 z M 4.8146005,7.4738202 a 0.1349375,0.1349375 0 0 1 0,0.1878541 L 4.6267464,7.8495285 a 0.1349375,0.1349375 0 0 1 -0.1878542,0 L 4.2536839,7.6616743 A 0.13229167,0.13229167 0 0 1 4.2457464,7.4738202 L 4.4309547,7.2886118 a 0.13229167,0.13229167 0 0 1 0.1878542,0 z"
       id="path826"
       style="stroke-width:0.264583" />
    <path
       d="m 9.2223415,6.4237213 a 0.26458333,0.26458333 0 0 1 -0.1852084,-0.076729 0.26458333,0.26458333 0 0 1 0,-0.3757083 L 10.719883,4.2779507 a 0.26941418,0.26941418 0 0 1 0.378354,0.3836456 L 9.4154873,6.3469921 A 0.26458333,0.26458333 0 0 1 9.2223415,6.4237213 Z M 7.7274456,5.4103671 10.34682,2.7909921 a 0.26458333,0.26458333 0 0 0 0,-0.3730625 0.26458333,0.26458333 0 0 0 -0.3757077,0 l -2.619375,2.619375 A 0.26458333,0.26458333 0 0 0 7.5395915,5.4897421 0.26458333,0.26458333 0 0 0 7.7274456,5.4103671 Z M 7.1638831,3.3519088 8.2883623,2.2300755 a 0.26458333,0.26458333 0 0 0 0,-0.3730625 0.26458333,0.26458333 0 0 0 -0.3757083,0 L 6.7908206,2.9788463 a 0.26458333,0.26458333 0 0 0 0.1878542,0.4524375 0.26458333,0.26458333 0 0 0 0.1852083,-0.079375 z m 4.0825209,-0.79375 0.28575,-0.4021667 h 0.494771 a 0.28839583,0.28839583 0 0 0 0.24077,-0.142875 0.26458333,0.26458333 0 0 0 -0.02381,-0.2804583 L 11.947552,1.333138 12.106302,0.86482547 a 0.26458333,0.26458333 0 0 0 -0.33602,-0.3360209 l -0.468313,0.15875 -0.396875,-0.2963333 a 0.26458333,0.26458333 0 0 0 -0.423333,0.2143125 l 0.0079,0.49741673 -0.404813,0.2831041 a 0.26458333,0.26458333 0 0 0 0.07408,0.4683125 l 0.473602,0.1481667 0.145521,0.4709583 a 0.26458333,0.26458333 0 0 0 0.211667,0.1825625 h 0.04233 A 0.26458333,0.26458333 0 0 0 11.246404,2.5475755 Z M 10.907737,1.4522005 a 0.26458333,0.26458333 0 0 0 0.113771,-0.2196042 v -0.097896 l 0.07938,0.058208 a 0.26458333,0.26458333 0 0 0 0.243417,0.039688 l 0.08996,-0.03175 -0.03175,0.092604 a 0.26458333,0.26458333 0 0 0 0.03969,0.2434166 l 0.05821,0.076729 h -0.0979 A 0.26458333,0.26458333 0 0 0 11.18291,1.7247213 l -0.05556,0.079375 -0.0291,-0.092604 a 0.26458333,0.26458333 0 0 0 -0.174624,-0.174625 l -0.08996,-0.029104 z m 1.180042,2.3944791 0.06879,-0.097896 h 0.113771 a 0.26458333,0.26458333 0 0 0 0.211667,-0.4233333 l -0.06085,-0.076729 0.03704,-0.1058333 a 0.26458333,0.26458333 0 0 0 -0.0635,-0.2645834 0.26458333,0.26458333 0 0 0 -0.264583,-0.0635 l -0.103188,0.034396 -0.08731,-0.066146 a 0.26458333,0.26458333 0 0 0 -0.312212,-0.029104 0.26458333,0.26458333 0 0 0 -0.142875,0.2407708 v 0.1084792 l -0.08731,0.0635 a 0.26458333,0.26458333 0 0 0 -0.10848,0.2645833 0.26458333,0.26458333 0 0 0 0.182563,0.2116667 l 0.103187,0.03175 0.03175,0.1058333 a 0.26458333,0.26458333 0 0 0 0.211667,0.1825625 h 0.04233 A 0.26458333,0.26458333 0 0 0 12.087779,3.8466796 Z M 9.0741748,1.5950755 9.1905915,1.428388 h 0.206375 A 0.28839583,0.28839583 0 0 0 9.6350915,1.2828671 0.26458333,0.26458333 0 0 0 9.6112785,1.0182838 L 9.4895706,0.83836707 9.5557165,0.64522127 A 0.26458333,0.26458333 0 0 0 9.2196956,0.30920047 l -0.1931458,0.0635 -0.1640417,-0.1217084 a 0.26458333,0.26458333 0 0 0 -0.2804583,-0.0238125 0.26458333,0.26458333 0 0 0 -0.142875,0.2407709 v 0.2037291 L 8.2724873,0.79074207 A 0.26458333,0.26458333 0 0 0 8.1640081,1.0553255 0.26458333,0.26458333 0 0 0 8.3465706,1.2669921 l 0.1957917,0.060854 0.058208,0.1957917 a 0.26458333,0.26458333 0 0 0 0.211667,0.1825627 h 0.042333 A 0.26458333,0.26458333 0 0 0 9.0741748,1.5950755 Z M 6.4283415,5.2251588 7.7512581,3.9022421 a 0.26458333,0.26458333 0 0 0 0,-0.3730625 0.26458333,0.26458333 0 0 0 -0.3757083,0 l -1.3335,1.3202709 a 0.26458333,0.26458333 0 0 0 0,0.3757083 0.26458333,0.26458333 0 0 0 0.1878542,0.076729 0.26458333,0.26458333 0 0 0 0.1878541,-0.076729 z m 1.1641666,1.6218958 1.5875,-1.5875 A 0.26566591,0.26566591 0 0 0 8.8042998,4.8838463 l -1.5875,1.5875 a 0.26458333,0.26458333 0 0 0 0,0.3757083 0.26458333,0.26458333 0 0 0 0.3757083,0 z"
       id="path921"
       style="stroke-width:0.264583" />
  </g>
</svg>
