<?xml version="1.0" standalone="no"?>
<!DOCTYPE svg PUBLIC "-//W3C//DTD SVG 20010904//EN"
 "http://www.w3.org/TR/2001/REC-SVG-20010904/DTD/svg10.dtd">
<svg version="1.0" xmlns="http://www.w3.org/2000/svg"
 width="700.000000pt" height="700.000000pt" viewBox="0 0 700.000000 700.000000"
 preserveAspectRatio="xMidYMid meet">
<metadata>
Created by potrace 1.14, written by Peter Selinger 2001-2017
</metadata>
<g transform="translate(0.000000,700.000000) scale(0.100000,-0.100000)"
fill="#000000" stroke="none">
<path d="M4732 6873 c-57 -28 -77 -67 -81 -163 l-3 -85 -55 -38 c-65 -46 -93
-88 -93 -140 0 -84 42 -128 152 -162 57 -17 57 -18 74 -74 23 -79 39 -106 77
-130 74 -46 156 -19 220 70 l41 59 60 1 c77 1 89 3 128 26 48 28 71 65 71 117
0 38 -8 58 -46 115 l-46 70 20 58 c29 82 27 136 -6 178 -47 63 -101 76 -189
45 -33 -11 -65 -20 -72 -20 -8 0 -43 20 -80 45 -73 50 -114 57 -172 28z"/>
<path d="M5894 6809 c-43 -8 -80 -38 -100 -78 -14 -29 -16 -63 -15 -187 l2
-153 -118 -81 c-147 -102 -158 -116 -158 -197 0 -55 3 -65 29 -92 23 -24 98
-60 136 -66 3 0 47 -14 97 -29 l93 -29 35 -116 c50 -160 55 -172 83 -203 23
-25 36 -31 98 -42 29 -6 94 26 124 60 14 16 54 70 89 121 l63 92 162 3 c154 3
164 4 199 28 41 28 59 60 62 110 3 51 -5 66 -101 196 l-87 117 46 141 c26 78
47 155 47 172 0 42 -32 96 -69 118 -50 29 -103 23 -248 -27 l-132 -46 -128 94
c-128 94 -153 106 -209 94z m216 -459 c0 -4 18 -15 41 -24 41 -17 93 -14 133
6 16 9 18 8 11 -8 -4 -11 -10 -43 -13 -72 -4 -45 -1 -58 22 -92 14 -22 26 -42
26 -45 0 -3 -16 -5 -35 -5 -52 0 -97 -22 -132 -65 l-31 -38 -13 42 c-14 48
-66 99 -110 108 -16 3 -29 7 -29 9 0 1 20 23 45 48 27 28 45 56 46 71 1 22 3
36 8 75 1 11 31 2 31 -10z"/>
<path d="M4405 6006 c-16 -8 -179 -164 -362 -347 -291 -294 -332 -339 -339
-372 -20 -114 82 -205 188 -166 29 10 125 100 373 348 313 313 335 337 341
377 18 120 -93 208 -201 160z"/>
<path d="M5541 5699 c-34 -13 -1508 -1490 -1521 -1523 -44 -117 66 -233 185
-193 19 7 295 275 776 756 796 795 777 775 760 853 -12 50 -32 77 -77 98 -43
21 -85 24 -123 9z"/>
<path d="M6412 5484 c-50 -26 -75 -69 -80 -136 -4 -54 -7 -60 -48 -93 -74 -61
-83 -151 -22 -221 20 -22 46 -39 75 -47 34 -9 45 -17 50 -37 19 -81 75 -132
146 -132 61 -1 91 15 134 69 35 44 42 48 80 47 131 -2 203 125 131 234 -27 40
-27 43 -14 94 20 79 -4 142 -66 174 -42 22 -72 24 -125 8 -45 -14 -46 -13 -85
18 -50 39 -124 48 -176 22z"/>
<path d="M4113 5085 c-42 -18 -797 -767 -813 -806 -7 -16 -10 -50 -7 -75 11
-97 119 -153 210 -108 38 19 758 734 789 782 40 65 14 167 -52 202 -34 18 -93
20 -127 5z"/>
<path d="M6005 4685 c-5 -2 -23 -6 -40 -10 -23 -4 -148 -125 -509 -488 -263
-265 -487 -495 -497 -512 -72 -115 69 -263 190 -200 33 16 978 961 997 997 26
46 8 142 -34 175 -30 24 -85 44 -107 38z"/>
<path d="M4900 4339 c-40 -16 -929 -907 -950 -953 -12 -26 -16 -52 -13 -75 6
-39 43 -95 73 -111 30 -16 94 -19 126 -5 37 15 942 918 955 952 45 120 -72
238 -191 192z"/>
<path d="M2647 4222 c-40 -18 -2438 -2407 -2462 -2452 -16 -31 -12 -102 7
-133 18 -27 336 -347 398 -400 36 -30 51 -37 86 -37 54 0 80 11 124 50 19 18
64 46 100 63 58 29 74 32 155 32 82 0 97 -3 155 -32 145 -71 224 -203 215
-356 -6 -96 -29 -149 -115 -261 -32 -42 -39 -91 -20 -143 13 -33 392 -417 434
-440 34 -18 95 -19 128 -3 13 7 569 559 1236 1228 876 879 1215 1224 1221
1246 11 43 4 94 -18 125 -11 14 -109 114 -218 223 -186 183 -202 197 -243 203
-56 8 -87 -3 -159 -59 -83 -66 -129 -81 -241 -81 -84 0 -102 4 -153 29 -224
111 -281 383 -122 581 18 22 38 51 45 64 17 33 14 98 -6 128 -34 52 -418 422
-443 428 -15 3 -35 7 -47 9 -11 2 -37 -3 -57 -12z m139 -422 c43 -44 80 -82
82 -84 2 -2 -10 -31 -27 -64 -131 -260 -74 -579 139 -776 205 -189 500 -234
742 -112 l66 33 86 -86 87 -87 -257 -253 -256 -252 -26 23 c-14 13 -39 38 -56
56 l-31 33 -90 -88 c-132 -129 -127 -113 -61 -179 l55 -56 -727 -728 -727
-728 -86 85 -86 85 33 66 c79 164 86 364 18 533 -144 353 -544 512 -894 354
-19 -8 -43 -21 -52 -28 -16 -10 -29 -1 -103 73 -47 46 -85 88 -85 92 0 4 327
334 726 733 l727 727 57 -57 58 -57 102 102 102 102 -56 57 -57 57 253 252
c139 139 256 252 259 252 3 0 41 -36 85 -80z"/>
<path d="M2473 2999 c-33 -12 -141 -123 -148 -152 -9 -34 4 -55 76 -127 88
-88 103 -88 196 3 101 98 102 116 8 204 -75 71 -99 85 -132 72z"/>
<path d="M2815 2530 c-100 -98 -101 -111 -3 -208 87 -88 111 -92 173 -34 72
69 105 112 105 139 0 36 -123 161 -167 169 -30 6 -38 1 -108 -66z"/>
</g>
</svg>
